<svg width="59" height="59" viewBox="0 0 59 59" fill="none" xmlns="http://www.w3.org/2000/svg">
<path d="M29.5 0C13.2334 0 0 13.234 0 29.5C0 45.7666 13.234 59 29.5 59C45.766 59 59 45.766 59 29.5C59 13.234 45.7666 0 29.5 0ZM47.4691 23.373L28.1915 42.6505C27.2217 43.6198 25.9513 44.1047 24.6804 44.1047C23.4094 44.1047 22.139 43.6198 21.1692 42.6505L11.5304 33.0117C9.59122 31.0726 9.59122 27.9285 11.5304 25.9893C13.4701 24.0507 16.6131 24.0507 18.5528 25.9893L24.6804 32.1174L40.4467 16.3506C42.3864 14.4119 45.5294 14.4119 47.4691 16.3506C49.4082 18.2897 49.4082 21.4338 47.4691 23.373Z" fill="#23CC7B"/>
</svg>
